<?xml version="1.0" encoding="UTF-8"?>
<svg xmlns="http://www.w3.org/2000/svg" xmlns:xlink="http://www.w3.org/1999/xlink" width="80" height="70.377" viewBox="0 0 80 70.377"><defs><style>.a{fill:url(#a);}</style><linearGradient id="a" x1="0.5" x2="0.5" y2="1" gradientUnits="objectBoundingBox"><stop offset="0" stop-color="#f1df3e"/><stop offset="1" stop-color="#fecd2f"/></linearGradient></defs><path class="a" d="M4727.532,3470.291h-69a5.507,5.507,0,0,0-5.5,5.5v47.476a5.507,5.507,0,0,0,5.5,5.5h25.956v8.862h-11.417a1.519,1.519,0,0,0,0,3.038h39.919a1.519,1.519,0,0,0,0-3.038h-11.417v-8.862h25.957a5.506,5.506,0,0,0,5.5-5.5v-47.476A5.506,5.506,0,0,0,4727.532,3470.291Zm-29,67.339h-11.009v-8.862h11.009Zm31.457-14.363a2.465,2.465,0,0,1-2.462,2.463h-69a2.465,2.465,0,0,1-2.462-2.463v-47.476a2.465,2.465,0,0,1,2.462-2.462h69a2.465,2.465,0,0,1,2.462,2.462Zm-41.579-15.176a3.071,3.071,0,1,0,3.071,3.071A3.074,3.074,0,0,0,4688.415,3508.092Zm-.032,3.071a.033.033,0,0,1,.065,0C4688.448,3511.2,4688.383,3511.2,4688.383,3511.162Zm9.918-3.07a3.07,3.07,0,1,0,3.071,3.07A3.074,3.074,0,0,0,4698.3,3508.093Zm-.032,3.07a.032.032,0,0,1,.032-.032.032.032,0,0,1,.032.032C4698.333,3511.2,4698.27,3511.2,4698.27,3511.163Zm-23.973-22.917a1.519,1.519,0,0,1,1.519-1.519h5.222a1.519,1.519,0,0,1,1.453,1.074l1.562,5.1h20.8a1.519,1.519,0,0,1,0,3.038h-19.868l.546,1.784h18.252a1.519,1.519,0,0,1,0,3.038h-17.322l.544,1.777h15.077a1.519,1.519,0,0,1,0,3.038h-16.2a1.519,1.519,0,0,1-1.453-1.075l-4.512-14.741h-4.1A1.519,1.519,0,0,1,4674.3,3488.246Z" transform="translate(-4653.032 -3470.291)"/></svg>