<?xml version="1.0" encoding="UTF-8"?>
<svg xmlns="http://www.w3.org/2000/svg" xmlns:xlink="http://www.w3.org/1999/xlink" width="110" height="110" viewBox="0 0 110 110"><defs><style>.a{fill:url(#a);}</style><linearGradient id="a" x1="0.5" x2="0.5" y2="1" gradientUnits="objectBoundingBox"><stop offset="0" stop-color="#f1df3e"/><stop offset="1" stop-color="#fecd2f"/></linearGradient></defs><path class="a" d="M5877.038-811.658a46.745,46.745,0,0,1,8.773,30.87,46.677,46.677,0,0,1-13.481,29.541,46.228,46.228,0,0,1-32.848,13.632,46.228,46.228,0,0,1-32.849-13.632,46.791,46.791,0,0,1,0-65.929A46.374,46.374,0,0,1,5836.07-830.7a46.343,46.343,0,0,1,30.761,8.8,2.127,2.127,0,0,1,.461,2.965,2.11,2.11,0,0,1-2.955.463,42.121,42.121,0,0,0-27.958-8,42.149,42.149,0,0,0-26.756,12.3,42.53,42.53,0,0,0,0,59.927,42.029,42.029,0,0,0,29.858,12.391,42.012,42.012,0,0,0,29.858-12.391,42.428,42.428,0,0,0,12.253-26.85,42.486,42.486,0,0,0-7.971-28.057,2.127,2.127,0,0,1,.461-2.965A2.11,2.11,0,0,1,5877.038-811.658Zm-18.434,1.409a2.127,2.127,0,0,0-.638-2.932,34.3,34.3,0,0,0-21.983-5.245,34.289,34.289,0,0,0-20.736,9.894,34.229,34.229,0,0,0-10.039,24.32,34.231,34.231,0,0,0,10.038,24.321,34.106,34.106,0,0,0,24.235,10.058,34.107,34.107,0,0,0,24.235-10.058,34.509,34.509,0,0,0,9.859-20.809,34.617,34.617,0,0,0-5.227-22.061,2.11,2.11,0,0,0-2.922-.64,2.125,2.125,0,0,0-.638,2.932,30.349,30.349,0,0,1,4.579,19.338,30.251,30.251,0,0,1-8.643,18.239,30,30,0,0,1-42.489,0,30.006,30.006,0,0,1-8.8-21.32,30.005,30.005,0,0,1,8.8-21.319,30.055,30.055,0,0,1,18.174-8.673,30.065,30.065,0,0,1,19.27,4.6A2.11,2.11,0,0,0,5858.6-810.249Zm-11.62,9.764a2.111,2.111,0,0,0,2.807-1.035,2.124,2.124,0,0,0-1.032-2.817,22.116,22.116,0,0,0-24.9,4.449,22.252,22.252,0,0,0,0,31.353,21.983,21.983,0,0,0,15.621,6.482,21.985,21.985,0,0,0,15.621-6.482,22.309,22.309,0,0,0,4.433-24.987,2.11,2.11,0,0,0-2.807-1.035,2.125,2.125,0,0,0-1.032,2.817,18.04,18.04,0,0,1-3.585,20.2,17.774,17.774,0,0,1-12.631,5.241,17.778,17.778,0,0,1-12.63-5.241,17.992,17.992,0,0,1,0-25.35A17.883,17.883,0,0,1,5846.984-800.485Zm-9.176,10.825a2.124,2.124,0,0,0,1.4-2.651,2.113,2.113,0,0,0-2.642-1.406,9.922,9.922,0,0,0-4.092,2.474,9.9,9.9,0,0,0-2.9,7.032,9.9,9.9,0,0,0,2.9,7.032,9.862,9.862,0,0,0,7.007,2.908,9.864,9.864,0,0,0,7.008-2.908,9.964,9.964,0,0,0,2.465-4.108,2.123,2.123,0,0,0-1.4-2.651,2.114,2.114,0,0,0-2.642,1.407,5.625,5.625,0,0,1-1.412,2.35,5.674,5.674,0,0,1-8.034,0,5.674,5.674,0,0,1-1.664-4.031,5.673,5.673,0,0,1,1.665-4.031A5.608,5.608,0,0,1,5837.808-789.66Zm64.621-37.523-13.065,13.111a2.11,2.11,0,0,1-1.5.622,2.1,2.1,0,0,1-.633-.1l-11.206-3.535a2.109,2.109,0,0,1-.428-.19l-34.041,34.16a2.1,2.1,0,0,1-1.5.622,2.1,2.1,0,0,1-1.5-.622,2.128,2.128,0,0,1,0-3l34.114-34.235c-.02-.05-.044-.1-.061-.15l-3.522-11.246a2.127,2.127,0,0,1,.521-2.137l13.065-13.111a2.11,2.11,0,0,1,2-.561,2.119,2.119,0,0,1,1.514,1.425l2.911,9.294,4.847-4.864a2.111,2.111,0,0,1,2.991,0,2.128,2.128,0,0,1,0,3L5892-833.727l9.57,3.019a2.119,2.119,0,0,1,1.42,1.519A2.128,2.128,0,0,1,5902.429-827.183Zm-26.382,3.46,9.7-9.733c-.02-.051-.04-.1-.057-.154l-2.477-7.907-9.692,9.726Zm20.925-3.986-7.878-2.485a2.111,2.111,0,0,1-.427-.19l-9.734,9.768,8.348,2.633Z" transform="translate(-5793.048 847.615)"/></svg>