<?xml version="1.0" encoding="UTF-8"?>
<svg xmlns="http://www.w3.org/2000/svg" xmlns:xlink="http://www.w3.org/1999/xlink" width="80" height="74.44" viewBox="0 0 80 74.44"><defs><style>.a{fill:url(#a);}</style><linearGradient id="a" x1="0.5" x2="0.5" y2="1" gradientUnits="objectBoundingBox"><stop offset="0" stop-color="#f1df3e"/><stop offset="1" stop-color="#fecd2f"/></linearGradient></defs><path class="a" d="M4583.835,2859.66h35.731a1.47,1.47,0,0,0,1.471-1.47v-22.745a1.471,1.471,0,0,0-1.471-1.471h-35.731a1.47,1.47,0,0,0-1.47,1.471v22.745A1.47,1.47,0,0,0,4583.835,2859.66Zm1.471-22.745h32.79v19.8h-32.79Zm56.466,8.168H4626.8a1.471,1.471,0,1,1,0-2.941h4.139V2836h-3.846a1.471,1.471,0,1,1,0-2.941h26.256v-30.044h-48.653v24.8a1.471,1.471,0,0,1-2.941,0v-26.271a1.47,1.47,0,0,1,1.471-1.47h51.594a1.471,1.471,0,0,1,1.471,1.47v32.985a1.471,1.471,0,0,1-1.471,1.471h-20.939v6.137h7.9a1.471,1.471,0,1,1,0,2.941Zm11.925,2.943H4642a3.045,3.045,0,0,0-3.042,3.042v20.409a3.045,3.045,0,0,0,3.042,3.042h11.7a3.045,3.045,0,0,0,3.042-3.042v-20.409A3.045,3.045,0,0,0,4653.7,2848.026Zm.1,23.45a.107.107,0,0,1-.1.1H4642a.105.105,0,0,1-.1-.1v-20.409a.1.1,0,0,1,.1-.1h11.7a.107.107,0,0,1,.1.1Zm-27.134-6.137a1.471,1.471,0,0,1-1.471,1.471h-46.983a1.471,1.471,0,0,1,0-2.941h46.983A1.47,1.47,0,0,1,4626.663,2865.339Zm22.856,3.3a1.471,1.471,0,0,1-1.471,1.471h-.4a1.471,1.471,0,0,1,0-2.941h.4A1.471,1.471,0,0,1,4649.519,2868.64Z" transform="translate(-4576.739 -2800.078)"/></svg>