<?xml version="1.0" encoding="UTF-8"?>
<svg xmlns="http://www.w3.org/2000/svg" xmlns:xlink="http://www.w3.org/1999/xlink" width="80" height="75.934" viewBox="0 0 80 75.934"><defs><style>.a{fill:url(#a);}</style><linearGradient id="a" x1="0.5" x2="0.5" y2="1" gradientUnits="objectBoundingBox"><stop offset="0" stop-color="#f1df3e"/><stop offset="1" stop-color="#fecd2f"/></linearGradient></defs><path class="a" d="M6846.373,2319.508a1.563,1.563,0,1,1,1.563,1.563A1.563,1.563,0,0,1,6846.373,2319.508Zm-13.437-30.624a1.562,1.562,0,1,0,1.563,1.562A1.562,1.562,0,0,0,6832.935,2288.884Zm-15,32.187a1.563,1.563,0,1,0-1.562-1.562A1.563,1.563,0,0,0,6817.935,2321.071Zm54.865,9.487a1.562,1.562,0,0,1-2.062.793l-8.75-3.888-28.435,12.23a1.589,1.589,0,0,1-1.235,0l-28.435-12.23-8.751,3.888a1.563,1.563,0,1,1-1.269-2.856l8.447-3.753v-34.3a1.572,1.572,0,0,1,.959-1.442l28.1-12.087v-11.471a1.563,1.563,0,0,1,3.125,0v11.471L6862.6,2289a1.57,1.57,0,0,1,.96,1.442v34.3l8.447,3.753A1.563,1.563,0,0,1,6872.8,2330.558Zm-41.427-26.583-25.937-11.156v30.535l6.155-2.735a1.563,1.563,0,0,1,1.269,2.856l-5.085,2.26,23.6,10.15Zm26.67-13.528L6834.5,2280.32v3.877a1.563,1.563,0,1,1-3.125,0v-3.877l-23.545,10.127,25.107,10.8Zm2.392,2.373-25.937,11.156v31.911l23.6-10.15-5.085-2.26a1.562,1.562,0,1,1,1.269-2.856l6.154,2.734Z" transform="translate(-6792.935 -2263.884)"/></svg>