<?xml version="1.0" encoding="UTF-8"?>
<svg xmlns="http://www.w3.org/2000/svg" xmlns:xlink="http://www.w3.org/1999/xlink" width="110" height="110" viewBox="0 0 110 110"><defs><style>.a{fill:url(#a);}</style><linearGradient id="a" x1="0.5" x2="0.5" y2="1" gradientUnits="objectBoundingBox"><stop offset="0" stop-color="#f1df3e"/><stop offset="1" stop-color="#fecd2f"/></linearGradient></defs><path class="a" d="M5251.336-791.747c.021-.115.039-.23.059-.345q.078-.459.146-.922c.024-.171.048-.342.07-.513q.055-.417.1-.837c.012-.108.027-.214.039-.321.008-.084.012-.169.02-.254.019-.207.035-.415.05-.623q.039-.513.064-1.03c0-.066.006-.132.008-.2a43.431,43.431,0,0,0-2.241-15.467c-.054-.165-.11-.33-.167-.495q-.156-.458-.321-.914-.139-.382-.285-.763c-.056-.146-.111-.292-.168-.438q-.224-.571-.464-1.139c-.043-.1-.088-.206-.132-.309-.175-.406-.354-.812-.539-1.216l-.01-.022a1.991,1.991,0,0,0-.3-.449,2,2,0,0,0-.132-.154c-.024-.022-.052-.039-.076-.06a2.02,2.02,0,0,0-.215-.17c-.017-.011-.036-.017-.053-.028a2.038,2.038,0,0,0-.275-.145l-.145-.059c-.425-.173-.851-.338-1.278-.5l-.259-.1q-.6-.221-1.2-.425l-.367-.122q-.437-.145-.875-.281c-.224-.07-.448-.138-.672-.2-.246-.072-.491-.144-.736-.212s-.463-.128-.695-.189l-.284-.072q-.742-.19-1.484-.356l-.086-.019a43.226,43.226,0,0,0-11.221-1.011l-.221.011q-.6.03-1.2.078c-.167.013-.333.027-.5.042-.2.018-.394.038-.589.059-.329.036-.659.075-.986.119l-.138.017c-.083.011-.163.027-.245.039q-.509.074-1.014.162l-.205.034c-.408.073-.813.155-1.216.242l-.218.047q-.615.136-1.222.294l-.143.038c-.152.04-.3.079-.455.121-.04.011-.077.027-.115.04a31.782,31.782,0,0,0-14.435,8.566c-3.675,3.836-9,9.319-14.449,14.913a1.978,1.978,0,0,0-.5-.012l-32.456,3.682a1.987,1.987,0,0,0-1.182.57l-13.222,13.226a1.988,1.988,0,0,0-.49,2,1.987,1.987,0,0,0,1.547,1.361l23.9,4.257a1.978,1.978,0,0,0,.294.366l6.5,6.307-7.08,2.364a3.362,3.362,0,0,0-2.376,2.464,6.079,6.079,0,0,0,1.671,5.509l21.013,20.146a6.182,6.182,0,0,0,4.14,1.626,4.765,4.765,0,0,0,1.3-.171,3.465,3.465,0,0,0,2.493-2.487l1.747-6.7,4.756,4.836,4.3,24.152a1.989,1.989,0,0,0,1.361,1.548,1.982,1.982,0,0,0,.6.091,1.986,1.986,0,0,0,1.406-.582l13.223-13.226a1.986,1.986,0,0,0,.569-1.182l3.606-31.809c6.07-6.018,12.074-12.037,16.027-16.162a31.82,31.82,0,0,0,7.947-14.822c.008-.029.02-.057.026-.087.023-.1.044-.2.066-.3s.048-.212.071-.318Q5251.234-791.188,5251.336-791.747Zm-27.578-26.035c.246-.037.493-.072.742-.1l.423-.051q.435-.05.873-.09l.318-.027q.5-.04,1.009-.067l.195-.01c.383-.018.767-.03,1.154-.035h.068a40.8,40.8,0,0,1,11.783,1.65h0c.4.115.792.237,1.189.364l.148.046c.338.109.675.226,1.012.343.1.036.207.069.311.107.266.095.53.2.8.3.165.063.332.122.5.186a41.075,41.075,0,0,1,3.648,18.117c0,.05,0,.1-.007.151q-.023.525-.063,1.046c-.007.094-.015.189-.022.283q-.038.449-.087.895c-.007.065-.015.129-.023.193l-24.252-23.249Zm-65.706,28.042,26.116-2.963-16.5,16.5-19.654-3.5Zm33.6,52.354a2.325,2.325,0,0,1-1.414-.525l-21.014-20.146a2.461,2.461,0,0,1-.595-1.394l8.842-2.953,8.318,8.075.184.176,7.944,8.078Zm27.849,9.112-10.038,10.04-3.5-19.66,16.5-16.5Zm20.634-49.584c-9.44,9.853-30.685,30.6-36.362,36.137l-14.987-15.24-.041-.04-16.781-16.289c5.5-5.61,25.78-26.3,35.222-36.154a27.7,27.7,0,0,1,11.679-7.2l27.963,26.807A27.73,27.73,0,0,1,5240.134-777.858Zm-15.7-16.6a9.825,9.825,0,0,0-7.064-2.752,9.837,9.837,0,0,0-6.939,3.05,9.842,9.842,0,0,0-2.751,7.065,9.843,9.843,0,0,0,3.048,6.942,9.833,9.833,0,0,0,6.847,2.754l.216,0a9.837,9.837,0,0,0,6.94-3.05,9.845,9.845,0,0,0,2.751-7.065,9.846,9.846,0,0,0-3.049-6.942ZM5221.86-783.2a5.891,5.891,0,0,1-4.154,1.826,5.888,5.888,0,0,1-4.228-1.647,5.888,5.888,0,0,1-1.825-4.156,5.892,5.892,0,0,1,1.646-4.229,5.889,5.889,0,0,1,4.155-1.826h.129a5.885,5.885,0,0,1,4.1,1.649h0a5.892,5.892,0,0,1,1.826,4.156A5.893,5.893,0,0,1,5221.86-783.2Zm-12.96,32.725a1.989,1.989,0,0,1,.074,2.811,1.98,1.98,0,0,1-1.442.62,1.98,1.98,0,0,1-1.368-.545l-27.891-26.458a1.989,1.989,0,0,1-.074-2.811,1.987,1.987,0,0,1,2.81-.074Z" transform="translate(-5141.93 822.145)"/></svg>