<?xml version="1.0" encoding="UTF-8"?>
<svg xmlns="http://www.w3.org/2000/svg" xmlns:xlink="http://www.w3.org/1999/xlink" width="110" height="110" viewBox="0 0 110 110"><defs><style>.a{fill:url(#a);}.b{fill:none;}</style><linearGradient id="a" x1="0.5" x2="0.5" y2="1" gradientUnits="objectBoundingBox"><stop offset="0" stop-color="#f1df3e"/><stop offset="1" stop-color="#fecd2f"/></linearGradient></defs><g transform="translate(-500 -1908)"><path class="a" d="M6389.421-791.578h-77.333a6.341,6.341,0,0,0-6.333,6.334v77.334a6.341,6.341,0,0,0,6.333,6.333h77.333a6.34,6.34,0,0,0,6.333-6.333v-77.334A6.34,6.34,0,0,0,6389.421-791.578Zm2.69,6.334V-748.4h-14.024a1.822,1.822,0,0,0-1.407.664,5.958,5.958,0,0,0-1.333,3.946c.056,2.219,1.29,3.508,2.377,4.645a6.637,6.637,0,0,1,2.349,5.382,7.738,7.738,0,0,1-7.729,7.73,7.738,7.738,0,0,1-7.73-7.73,7.084,7.084,0,0,1,2.042-5.1,7.285,7.285,0,0,0,2.118-5.02,7.135,7.135,0,0,0-1.464-3.77,1.822,1.822,0,0,0-1.471-.747h-13.261v-11.454a4.2,4.2,0,0,1,2.128-1.1c.94-.027,1.521.41,2.643,1.314a10.7,10.7,0,0,0,7.385,2.848,11.388,11.388,0,0,0,11.375-11.374,11.388,11.388,0,0,0-11.375-11.374,10.2,10.2,0,0,0-7.9,3.359c-.952.91-1.443,1.348-2.218,1.368a2.168,2.168,0,0,1-2.037-1.137v-11.983h36.844A2.693,2.693,0,0,1,6392.111-785.244Zm-82.712,0a2.692,2.692,0,0,1,2.689-2.689h36.844v12.309a1.8,1.8,0,0,0,.082.537,5.754,5.754,0,0,0,5.692,3.917,6.665,6.665,0,0,0,4.645-2.377,6.639,6.639,0,0,1,5.382-2.348,7.739,7.739,0,0,1,7.73,7.73,7.739,7.739,0,0,1-7.73,7.73,7.083,7.083,0,0,1-5.1-2.042,7.283,7.283,0,0,0-5.02-2.118,7.891,7.891,0,0,0-5.292,2.9,1.826,1.826,0,0,0-.39,1.126V-748.4h-12.248a2.564,2.564,0,0,1-.306-.965c-.023-.94.411-1.522,1.313-2.643a10.7,10.7,0,0,0,2.849-7.385,11.387,11.387,0,0,0-11.375-11.374,11.388,11.388,0,0,0-11.375,11.374,10.2,10.2,0,0,0,3.36,7.9c.91.951,1.348,1.442,1.368,2.218a2.457,2.457,0,0,1-.133.874H6309.4Zm0,77.334v-36.844h14.023a1.82,1.82,0,0,0,1.407-.664,5.962,5.962,0,0,0,1.333-3.946,6.667,6.667,0,0,0-2.377-4.645,6.637,6.637,0,0,1-2.349-5.382,7.738,7.738,0,0,1,7.73-7.73,7.739,7.739,0,0,1,7.73,7.73,7.083,7.083,0,0,1-2.042,5.1,7.286,7.286,0,0,0-2.118,5.021,7.134,7.134,0,0,0,1.464,3.77,1.822,1.822,0,0,0,1.472.748h13.26V-733.3a4.2,4.2,0,0,1-2.129,1.1c-.936.025-1.521-.41-2.643-1.313a10.7,10.7,0,0,0-7.385-2.848,11.387,11.387,0,0,0-11.375,11.374,11.387,11.387,0,0,0,11.375,11.374,10.205,10.205,0,0,0,7.9-3.359c.952-.91,1.442-1.348,2.217-1.367a2.158,2.158,0,0,1,2.038,1.137v11.982h-36.844A2.692,2.692,0,0,1,6309.4-707.911Zm82.712,0a2.693,2.693,0,0,1-2.69,2.689h-36.844v-12.309a1.818,1.818,0,0,0-.082-.537,5.753,5.753,0,0,0-5.693-3.917,6.669,6.669,0,0,0-4.644,2.377,6.637,6.637,0,0,1-5.382,2.349,7.739,7.739,0,0,1-7.73-7.73,7.739,7.739,0,0,1,7.73-7.73,7.083,7.083,0,0,1,5.1,2.042,7.325,7.325,0,0,0,5.02,2.118,7.894,7.894,0,0,0,5.293-2.9,1.82,1.82,0,0,0,.39-1.127v-12.169h12.248a2.528,2.528,0,0,1,.3.965c.024.941-.409,1.522-1.312,2.644a10.7,10.7,0,0,0-2.848,7.385,11.387,11.387,0,0,0,11.375,11.374,11.387,11.387,0,0,0,11.373-11.374,10.2,10.2,0,0,0-3.359-7.9c-.91-.951-1.348-1.443-1.367-2.218a2.478,2.478,0,0,1,.132-.874h12.987Z" transform="translate(-5795.754 2709.578)"/><rect class="b" width="110" height="110" transform="translate(500 1908)"/></g></svg>