<?xml version="1.0" encoding="UTF-8"?>
<svg xmlns="http://www.w3.org/2000/svg" xmlns:xlink="http://www.w3.org/1999/xlink" width="82" height="82" viewBox="0 0 82 82"><defs><style>.a{stroke:#27292b;stroke-width:2px;fill:url(#a);}</style><linearGradient id="a" x1="0.5" x2="0.5" y2="1" gradientUnits="objectBoundingBox"><stop offset="0" stop-color="#f1df3e"/><stop offset="1" stop-color="#fecd2f"/></linearGradient></defs><path class="a" d="M5119.05,2789.447a40,40,0,1,0,40,40A40.045,40.045,0,0,0,5119.05,2789.447Zm-35.967,40a35.682,35.682,0,0,1,3.113-14.63l17.16,47a35.981,35.981,0,0,1-20.273-32.37Zm35.967,35.97a35.741,35.741,0,0,1-10.16-1.47l10.791-31.353,11.049,30.29a5.339,5.339,0,0,0,.257.5,36.024,36.024,0,0,1-11.937,2.033ZM5124,2812.6v0c2.16-.113,4.11-.337,4.11-.337a1.49,1.49,0,0,0-.227-2.97s-5.823.45-9.58.45c-3.533,0-9.47-.45-9.47-.45a1.49,1.49,0,0,0-.223,2.97s1.836.227,3.773.337l5.6,15.353-7.87,23.6-13.093-38.95c2.164-.113,4.113-.337,4.113-.337a1.49,1.49,0,0,0-.227-2.97s-5.823.45-9.58.45c-.677,0-1.47-.017-2.323-.047a35.971,35.971,0,0,1,54.34-6.777,4.464,4.464,0,0,0-.467-.03,6.224,6.224,0,0,0-6.033,6.386c0,2.967,1.71,5.467,3.534,8.437a18.885,18.885,0,0,1,2.969,9.92c0,3.08-1.176,6.643-2.743,11.63l-3.583,11.983Zm26.617-.407a35.974,35.974,0,0,1-13.484,48.34l0,0,10.983-31.76a34.048,34.048,0,0,0,2.743-12.887,26.767,26.767,0,0,0-.239-3.69Z" transform="translate(-5078.05 -2788.447)"/></svg>